<?xml version="1.0" standalone="no"?>
<!DOCTYPE svg PUBLIC "-//W3C//DTD SVG 20010904//EN"
 "http://www.w3.org/TR/2001/REC-SVG-20010904/DTD/svg10.dtd">
<svg version="1.0" xmlns="http://www.w3.org/2000/svg"
 width="2752.000000pt" height="1536.000000pt" viewBox="0 0 2752.000000 1536.000000"
 preserveAspectRatio="xMidYMid meet">

<g transform="translate(0.000000,1536.000000) scale(0.100000,-0.100000)"
fill="#000000" stroke="none">
<path d="M13745 12477 c-27 -59 -45 -155 -38 -208 4 -32 12 -40 54 -63 26 -15
56 -39 67 -54 50 -74 47 27 47 -1667 l0 -1580 22 -53 21 -52 -26 -6 c-127 -28
-187 -58 -244 -122 -81 -90 -128 -223 -128 -363 0 -132 44 -256 146 -411 52
-78 189 -210 265 -255 96 -57 89 -65 89 101 l0 146 474 0 474 0 16 -66 c23
-92 56 -169 104 -245 l41 -64 -451 -3 -450 -2 6 -31 c3 -17 6 -65 6 -105 l0
-74 2371 2 2371 3 29 33 c42 46 40 93 -5 138 l-34 34 -211 0 c-116 0 -211 2
-211 4 0 3 23 36 52 73 49 65 100 161 114 217 3 14 11 29 17 33 6 3 53 10 105
14 112 10 171 35 216 92 l31 39 3 258 3 259 -41 11 -40 11 0 132 c0 129 -20
339 -39 404 -22 77 -82 136 -221 218 -36 21 -74 44 -85 50 -19 12 -20 23 -20
216 0 150 -4 215 -14 247 -22 67 -82 127 -164 166 -97 46 -383 155 -597 227
l-175 59 -112 332 -113 333 55 5 55 5 -75 110 c-118 176 -115 173 -225 196
-116 25 -189 35 -300 43 -47 4 -128 11 -180 16 -660 68 -1266 85 -1575 44
-149 -20 -174 -28 -120 -38 100 -19 185 -91 237 -201 23 -51 183 -660 223
-853 4 -22 13 -33 28 -37 12 -2 101 -20 197 -39 248 -50 718 -175 954 -254
l201 -67 -3 -65 c-1 -36 9 -171 23 -300 13 -129 29 -307 35 -395 6 -88 13
-166 15 -172 8 -25 -3 -13 -35 37 -93 145 -367 328 -605 403 -304 96 -684 96
-964 1 -42 -15 -92 -35 -111 -45 l-35 -19 40 7 c125 23 332 -7 438 -64 152
-83 299 -291 382 -540 l27 -83 533 0 533 0 -4 43 c-3 23 -13 139 -24 257 -11
118 -32 337 -46 485 -16 154 -24 286 -20 306 10 53 45 101 93 125 60 31 208
37 593 24 532 -17 609 -29 659 -98 12 -17 25 -50 29 -74 8 -42 -11 -793 -25
-1038 l-8 -125 -1278 0 -1279 0 -32 80 c-39 98 -96 203 -128 232 -32 31 -123
69 -197 84 -84 16 -188 6 -256 -25 -197 -90 -345 -396 -345 -715 l0 -84 -77 7
c-42 3 -80 11 -84 18 -15 24 -21 220 -10 308 15 114 53 266 86 337 14 30 25
60 25 65 0 5 -138 8 -329 8 -365 -2 -363 -2 -399 64 -16 29 -17 152 -22 1661
l-5 1630 -23 56 c-47 117 -121 193 -250 258 -93 47 -90 47 -117 -12z m2150
-1487 c484 -22 1393 -84 1407 -98 7 -7 209 -615 205 -618 -1 -1 -32 2 -69 7
-269 33 -547 44 -1126 44 l-593 0 -9 35 c-90 342 -160 618 -160 632 0 16 7 18
53 13 28 -3 160 -10 292 -15z m463 -1955 c275 -34 366 -69 439 -168 64 -88 78
-117 61 -129 -7 -4 -133 -7 -280 -6 -222 3 -270 6 -282 18 -26 28 -158 279
-151 290 9 14 70 13 213 -5z m2516 -102 c8 -49 18 -111 22 -139 l6 -52 -38 -4
c-22 -3 -81 -6 -132 -7 -110 -3 -110 -3 -93 112 14 103 37 128 146 163 72 23
71 23 89 -73z m-4245 -387 c-54 -100 -72 -187 -59 -291 6 -44 14 -96 20 -115
5 -19 10 -36 10 -38 0 -1 -181 -1 -402 0 l-403 3 -35 70 c-32 63 -35 77 -35
155 0 75 4 91 30 138 33 62 90 106 156 122 24 5 202 14 394 19 193 4 353 9
357 9 4 1 -11 -31 -33 -72z m864 -20 c76 -31 136 -138 164 -291 35 -190 -28
-416 -138 -498 -15 -10 -47 -22 -72 -24 -210 -24 -332 411 -192 686 31 62 66
98 117 121 51 23 78 25 121 6z m2078 -773 c19 -60 45 -106 98 -177 l50 -66
-814 0 c-448 0 -815 2 -815 4 0 2 18 30 40 63 22 33 53 91 69 129 l29 69 549
5 c301 3 601 6 665 8 l116 2 13 -37z"/>
<path d="M16276 12488 c-40 -56 -70 -265 -40 -275 6 -2 32 -17 57 -33 71 -45
90 -91 95 -227 2 -62 1 -113 -4 -113 -4 0 -59 14 -122 31 -62 17 -116 29 -118
26 -5 -4 204 -63 259 -72 20 -3 82 -24 136 -45 54 -22 101 -40 105 -40 3 0 6
67 6 149 0 328 -58 458 -252 569 -100 56 -103 57 -122 30z"/>
<path d="M14573 12023 c20 -2 54 -2 75 0 20 2 3 4 -38 4 -41 0 -58 -2 -37 -4z"/>
<path d="M15063 12013 c20 -2 54 -2 75 0 20 2 3 4 -38 4 -41 0 -58 -2 -37 -4z"/>
<path d="M15258 12003 c29 -2 74 -2 100 0 26 2 2 3 -53 3 -55 0 -76 -1 -47 -3z"/>
<path d="M15435 11995 c23 -8 85 -10 85 -3 0 4 -21 8 -47 7 -27 0 -43 -2 -38
-4z"/>
<path d="M15548 11983 c12 -2 32 -2 45 0 12 2 2 4 -23 4 -25 0 -35 -2 -22 -4z"/>
<path d="M13620 11906 c-91 -25 -85 -29 22 -10 37 6 37 6 41 -33 3 -36 4 -36
5 10 2 52 2 52 -68 33z"/>
<path d="M15028 11883 c18 -2 45 -2 60 0 15 2 0 4 -33 4 -33 0 -45 -2 -27 -4z"/>
<path d="M13470 11866 c-66 -19 -80 -26 -35 -19 44 7 119 32 95 31 -8 0 -35
-5 -60 -12z"/>
<path d="M15233 11873 c15 -2 39 -2 55 0 15 2 2 4 -28 4 -30 0 -43 -2 -27 -4z"/>
<path d="M15383 11863 c15 -2 37 -2 50 0 12 2 0 4 -28 4 -27 0 -38 -2 -22 -4z"/>
<path d="M15508 11853 c6 -2 18 -2 25 0 6 3 1 5 -13 5 -14 0 -19 -2 -12 -5z"/>
<path d="M13368 11833 c7 -3 16 -2 19 1 4 3 -2 6 -13 5 -11 0 -14 -3 -6 -6z"/>
<path d="M14960 11789 c58 -28 138 -73 179 -101 40 -28 71 -45 67 -40 -19 32
-308 193 -342 192 -5 -1 38 -24 96 -51z"/>
<path d="M13258 11803 c7 -3 16 -2 19 1 4 3 -2 6 -13 5 -11 0 -14 -3 -6 -6z"/>
<path d="M16008 11783 c6 -2 18 -2 25 0 6 3 1 5 -13 5 -14 0 -19 -2 -12 -5z"/>
<path d="M13148 11773 c7 -3 16 -2 19 1 4 3 -2 6 -13 5 -11 0 -14 -3 -6 -6z"/>
<path d="M16070 11770 c14 -4 34 -8 45 -8 16 0 15 2 -5 8 -14 4 -34 8 -45 8
-16 0 -15 -2 5 -8z"/>
<path d="M13047 11753 c-32 -9 -56 -17 -54 -20 5 -4 129 26 136 33 8 7 -23 2
-82 -13z"/>
<path d="M16148 11753 c7 -3 16 -2 19 1 4 3 -2 6 -13 5 -11 0 -14 -3 -6 -6z"/>
<path d="M16181 11746 c7 -7 123 -36 127 -32 2 2 -21 11 -51 20 -53 15 -85 20
-76 12z"/>
<path d="M9817 11618 c-120 -394 -228 -733 -235 -740 -8 -8 -555 -88 -971
-142 -192 -25 -241 -36 -165 -36 21 0 215 -9 429 -20 215 -10 586 -26 825 -36
239 -9 437 -19 440 -21 5 -5 -52 -173 -61 -178 -3 -2 -104 -15 -225 -29 -1377
-158 -2004 -232 -2012 -240 -3 -3 34 -6 82 -6 48 0 162 -5 254 -10 262 -16
1633 -80 1710 -80 38 0 71 -2 74 -5 3 -3 -8 -43 -25 -90 -27 -79 -32 -85 -61
-90 -17 -2 -177 -18 -356 -35 -365 -34 -1513 -151 -1750 -179 -153 -17 -154
-18 -90 -24 36 -4 286 -18 555 -32 1093 -54 1521 -77 1532 -80 8 -3 3 -31 -18
-94 l-30 -90 -42 -6 c-56 -7 -561 -66 -987 -115 -390 -45 -572 -68 -576 -73
-3 -3 147 -19 571 -61 77 -8 184 -17 238 -21 l99 -7 -7 -26 c-10 -45 -377
-1198 -531 -1671 -13 -40 -24 -75 -24 -77 0 -2 253 -4 563 -4 l564 0 122 393
c130 414 232 740 485 1547 85 272 176 566 203 653 26 86 50 157 53 157 3 0 56
-134 119 -298 131 -342 622 -1611 642 -1660 13 -30 14 -11 15 180 2 466 97
872 310 1316 l63 133 -78 212 c-43 117 -116 318 -161 447 -45 129 -139 399
-210 600 -70 201 -158 454 -195 563 l-67 197 -517 0 -516 0 -38 -122z"/>
<path d="M12958 11723 c7 -3 16 -2 19 1 4 3 -2 6 -13 5 -11 0 -14 -3 -6 -6z"/>
<path d="M12918 11713 c7 -3 16 -2 19 1 4 3 -2 6 -13 5 -11 0 -14 -3 -6 -6z"/>
<path d="M16680 11716 c0 -3 9 -10 20 -16 11 -6 20 -8 20 -6 0 3 -9 10 -20 16
-11 6 -20 8 -20 6z"/>
<path d="M12855 11700 c-13 -5 -14 -9 -5 -9 8 0 24 4 35 9 13 5 14 9 5 9 -8 0
-24 -4 -35 -9z"/>
<path d="M16335 11700 c27 -12 43 -12 25 0 -8 5 -22 9 -30 9 -10 0 -8 -3 5 -9z"/>
<path d="M16409 11675 c18 -8 36 -15 40 -15 13 1 -45 29 -59 29 -8 0 0 -6 19
-14z"/>
<path d="M12728 11663 c7 -3 16 -2 19 1 4 3 -2 6 -13 5 -11 0 -14 -3 -6 -6z"/>
<path d="M12688 11653 c7 -3 16 -2 19 1 4 3 -2 6 -13 5 -11 0 -14 -3 -6 -6z"/>
<path d="M16470 11650 c8 -5 20 -10 25 -10 6 0 3 5 -5 10 -8 5 -19 10 -25 10
-5 0 -3 -5 5 -10z"/>
<path d="M12618 11633 c7 -3 16 -2 19 1 4 3 -2 6 -13 5 -11 0 -14 -3 -6 -6z"/>
<path d="M15230 11626 c0 -2 8 -10 18 -17 15 -13 16 -12 3 4 -13 16 -21 21
-21 13z"/>
<path d="M12538 11613 c7 -3 16 -2 19 1 4 3 -2 6 -13 5 -11 0 -14 -3 -6 -6z"/>
<path d="M12475 11600 c-13 -5 -14 -9 -5 -9 8 0 24 4 35 9 13 5 14 9 5 9 -8 0
-24 -4 -35 -9z"/>
<path d="M12418 11583 c6 -2 18 -2 25 0 6 3 1 5 -13 5 -14 0 -19 -2 -12 -5z"/>
<path d="M16950 11504 c47 -49 108 -114 135 -144 34 -39 40 -43 20 -15 -51 71
-127 154 -184 202 -48 40 -43 34 29 -43z"/>
<path d="M12348 11563 c7 -3 16 -2 19 1 4 3 -2 6 -13 5 -11 0 -14 -3 -6 -6z"/>
<path d="M12308 11553 c7 -3 16 -2 19 1 4 3 -2 6 -13 5 -11 0 -14 -3 -6 -6z"/>
<path d="M12102 11502 c-51 -14 -90 -27 -88 -29 5 -5 197 45 205 52 9 9 -25 3
-117 -23z"/>
<path d="M16870 11377 c52 -53 96 -97 98 -97 7 0 -58 73 -97 110 -89 83 -89
77 -1 -13z"/>
<path d="M11948 11453 c7 -3 16 -2 19 1 4 3 -2 6 -13 5 -11 0 -14 -3 -6 -6z"/>
<path d="M11908 11443 c7 -3 16 -2 19 1 4 3 -2 6 -13 5 -11 0 -14 -3 -6 -6z"/>
<path d="M11838 11423 c7 -3 16 -2 19 1 4 3 -2 6 -13 5 -11 0 -14 -3 -6 -6z"/>
<path d="M12628 11423 c7 -3 16 -2 19 1 4 3 -2 6 -13 5 -11 0 -14 -3 -6 -6z"/>
<path d="M12668 11423 c7 -3 16 -2 19 1 4 3 -2 6 -13 5 -11 0 -14 -3 -6 -6z"/>
<path d="M12725 11384 c-9 -15 -12 -23 -6 -20 11 7 35 46 28 46 -3 0 -12 -12
-22 -26z"/>
<path d="M11645 11374 c-44 -13 -63 -21 -42 -18 44 6 159 42 137 42 -8 0 -51
-10 -95 -24z"/>
<path d="M12333 11393 c9 -2 23 -2 30 0 6 3 -1 5 -18 5 -16 0 -22 -2 -12 -5z"/>
<path d="M12233 11383 c9 -2 23 -2 30 0 6 3 -1 5 -18 5 -16 0 -22 -2 -12 -5z"/>
<path d="M14301 11344 c0 -11 3 -14 6 -6 3 7 2 16 -1 19 -3 4 -6 -2 -5 -13z"/>
<path d="M11538 11343 c7 -3 16 -2 19 1 4 3 -2 6 -13 5 -11 0 -14 -3 -6 -6z"/>
<path d="M11878 11343 c6 -2 18 -2 25 0 6 3 1 5 -13 5 -14 0 -19 -2 -12 -5z"/>
<path d="M11778 11333 c12 -2 30 -2 40 0 9 3 -1 5 -23 4 -22 0 -30 -2 -17 -4z"/>
<path d="M11381 11307 c-88 -24 -82 -31 15 -18 38 4 58 9 44 11 -21 1 -19 4
15 15 63 21 8 15 -74 -8z"/>
<path d="M11693 11323 c9 -2 25 -2 35 0 9 3 1 5 -18 5 -19 0 -27 -2 -17 -5z"/>
<path d="M11618 11313 c6 -2 18 -2 25 0 6 3 1 5 -13 5 -14 0 -19 -2 -12 -5z"/>
<path d="M14570 11245 c-45 -33 -30 -32 18 0 20 14 32 25 27 25 -6 -1 -26 -12
-45 -25z"/>
<path d="M12630 11240 c-6 -11 -8 -20 -6 -20 3 0 10 9 16 20 6 11 8 20 6 20
-3 0 -10 -9 -16 -20z"/>
<path d="M14635 11205 c-27 -7 -41 -13 -30 -13 11 0 43 6 70 13 28 7 41 13 30
13 -11 0 -42 -6 -70 -13z"/>
<path d="M12540 11105 c-77 -115 -88 -142 -17 -42 55 78 99 147 92 147 -2 0
-36 -47 -75 -105z"/>
<path d="M14558 11183 c7 -3 16 -2 19 1 4 3 -2 6 -13 5 -11 0 -14 -3 -6 -6z"/>
<path d="M13590 11026 c-419 -188 -771 -435 -1120 -785 -207 -207 -307 -324
-446 -517 -320 -446 -547 -933 -652 -1394 -51 -221 -86 -486 -63 -479 10 4
229 307 1002 1389 234 327 459 641 500 698 l74 103 5 -80 5 -79 109 73 c61 41
169 103 240 138 123 61 340 146 414 162 l32 7 0 404 c0 222 -1 404 -2 403 -2
0 -46 -19 -98 -43z"/>
<path d="M12421 10930 c-23 -33 -40 -60 -38 -60 3 0 20 21 39 48 41 57 50 72
45 72 -2 0 -23 -27 -46 -60z"/>
<path d="M15098 10973 c12 -2 30 -2 40 0 9 3 -1 5 -23 4 -22 0 -30 -2 -17 -4z"/>
<path d="M15023 10963 c9 -2 25 -2 35 0 9 3 1 5 -18 5 -19 0 -27 -2 -17 -5z"/>
<path d="M14958 10953 c6 -2 18 -2 25 0 6 3 1 5 -13 5 -14 0 -19 -2 -12 -5z"/>
<path d="M14908 10943 c6 -2 18 -2 25 0 6 3 1 5 -13 5 -14 0 -19 -2 -12 -5z"/>
<path d="M14848 10933 c6 -2 18 -2 25 0 6 3 1 5 -13 5 -14 0 -19 -2 -12 -5z"/>
<path d="M14798 10923 c7 -3 16 -2 19 1 4 3 -2 6 -13 5 -11 0 -14 -3 -6 -6z"/>
<path d="M14748 10913 c7 -3 16 -2 19 1 4 3 -2 6 -13 5 -11 0 -14 -3 -6 -6z"/>
<path d="M14708 10903 c7 -3 16 -2 19 1 4 3 -2 6 -13 5 -11 0 -14 -3 -6 -6z"/>
<path d="M12111 10480 c-34 -49 -60 -90 -57 -90 3 0 25 28 49 63 57 80 80 117
75 117 -3 0 -33 -40 -67 -90z"/>
<path d="M14768 10273 c6 -2 18 -2 25 0 6 3 1 5 -13 5 -14 0 -19 -2 -12 -5z"/>
<path d="M14828 10263 c6 -2 18 -2 25 0 6 3 1 5 -13 5 -14 0 -19 -2 -12 -5z"/>
<path d="M14883 10253 c9 -2 23 -2 30 0 6 3 -1 5 -18 5 -16 0 -22 -2 -12 -5z"/>
<path d="M14943 10243 c9 -2 23 -2 30 0 6 3 -1 5 -18 5 -16 0 -22 -2 -12 -5z"/>
<path d="M15003 10233 c9 -2 23 -2 30 0 6 3 -1 5 -18 5 -16 0 -22 -2 -12 -5z"/>
<path d="M15068 10223 c7 -3 16 -2 19 1 4 3 -2 6 -13 5 -11 0 -14 -3 -6 -6z"/>
<path d="M14320 10010 c25 -8 227 -14 219 -6 -2 2 -58 6 -124 9 -69 3 -109 2
-95 -3z"/>
<path d="M14560 9998 c0 -5 41 -8 92 -8 50 0 89 2 87 4 -8 8 -179 11 -179 4z"/>
<path d="M11762 9973 c-26 -38 -34 -53 -29 -53 2 0 16 18 31 40 29 45 28 56
-2 13z"/>
<path d="M14648 9893 c6 -2 18 -2 25 0 6 3 1 5 -13 5 -14 0 -19 -2 -12 -5z"/>
<path d="M14573 9883 c9 -2 25 -2 35 0 9 3 1 5 -18 5 -19 0 -27 -2 -17 -5z"/>
<path d="M14488 9873 c12 -2 30 -2 40 0 9 3 -1 5 -23 4 -22 0 -30 -2 -17 -4z"/>
<path d="M14408 9863 c12 -2 30 -2 40 0 9 3 -1 5 -23 4 -22 0 -30 -2 -17 -4z"/>
<path d="M14323 9853 c9 -2 25 -2 35 0 9 3 1 5 -18 5 -19 0 -27 -2 -17 -5z"/>
<path d="M15238 9763 c23 -2 61 -2 85 0 23 2 4 4 -43 4 -47 0 -66 -2 -42 -4z"/>
<path d="M16700 9705 c35 -36 67 -65 69 -65 3 0 -24 29 -59 65 -35 36 -67 65
-69 65 -3 0 24 -29 59 -65z"/>
<path d="M15038 9753 c17 -2 47 -2 65 0 17 2 3 4 -33 4 -36 0 -50 -2 -32 -4z"/>
<path d="M14728 9743 c29 -2 74 -2 100 0 26 2 2 3 -53 3 -55 0 -76 -1 -47 -3z"/>
<path d="M14558 9733 c23 -2 59 -2 80 0 20 2 1 4 -43 4 -44 0 -61 -2 -37 -4z"/>
<path d="M15318 9723 c7 -3 16 -2 19 1 4 3 -2 6 -13 5 -11 0 -14 -3 -6 -6z"/>
<path d="M15268 9713 c6 -2 18 -2 25 0 6 3 1 5 -13 5 -14 0 -19 -2 -12 -5z"/>
<path d="M15218 9703 c7 -3 16 -2 19 1 4 3 -2 6 -13 5 -11 0 -14 -3 -6 -6z"/>
<path d="M15168 9693 c7 -3 16 -2 19 1 4 3 -2 6 -13 5 -11 0 -14 -3 -6 -6z"/>
<path d="M15118 9683 c7 -3 16 -2 19 1 4 3 -2 6 -13 5 -11 0 -14 -3 -6 -6z"/>
<path d="M15068 9673 c7 -3 16 -2 19 1 4 3 -2 6 -13 5 -11 0 -14 -3 -6 -6z"/>
<path d="M15018 9663 c6 -2 18 -2 25 0 6 3 1 5 -13 5 -14 0 -19 -2 -12 -5z"/>
<path d="M14968 9653 c6 -2 18 -2 25 0 6 3 1 5 -13 5 -14 0 -19 -2 -12 -5z"/>
<path d="M14918 9643 c6 -2 18 -2 25 0 6 3 1 5 -13 5 -14 0 -19 -2 -12 -5z"/>
<path d="M17272 9585 c2 -35 6 -67 9 -70 3 -3 252 -8 552 -12 l547 -6 0 70 0
71 -31 6 c-17 3 -268 6 -556 6 l-525 0 4 -65z"/>
<path d="M14868 9633 c6 -2 18 -2 25 0 6 3 1 5 -13 5 -14 0 -19 -2 -12 -5z"/>
<path d="M14818 9623 c6 -2 18 -2 25 0 6 3 1 5 -13 5 -14 0 -19 -2 -12 -5z"/>
<path d="M14768 9613 c6 -2 18 -2 25 0 6 3 1 5 -13 5 -14 0 -19 -2 -12 -5z"/>
<path d="M14718 9603 c7 -3 16 -2 19 1 4 3 -2 6 -13 5 -11 0 -14 -3 -6 -6z"/>
<path d="M14306 9531 c-3 -4 6 -6 19 -3 14 2 25 6 25 8 0 8 -39 4 -44 -5z"/>
<path d="M16391 9456 c10 -9 109 -56 109 -51 0 5 -95 55 -106 55 -4 0 -5 -2
-3 -4z"/>
<path d="M16510 9396 c0 -3 9 -10 20 -16 11 -6 20 -8 20 -6 0 3 -9 10 -20 16
-11 6 -20 8 -20 6z"/>
<path d="M17297 9303 c3 -38 8 -70 10 -73 3 -3 243 -6 534 -8 l529 -3 0 75 0
76 -540 0 -539 0 6 -67z"/>
<path d="M16590 9346 c0 -2 8 -10 18 -17 15 -13 16 -12 3 4 -13 16 -21 21 -21
13z"/>
<path d="M17325 9023 c4 -38 8 -69 9 -69 0 -1 231 -3 511 -5 l510 -4 3 73 3
72 -521 0 -522 0 7 -67z"/>
<path d="M15089 8943 l-24 -28 28 24 c15 14 27 26 27 28 0 8 -8 1 -31 -24z"/>
<path d="M17349 8813 c-2 -18 2 -90 7 -116 l6 -27 491 2 492 3 0 70 0 70 -497
3 c-274 1 -498 -1 -499 -5z"/>
<path d="M14871 8504 c0 -11 3 -14 6 -6 3 7 2 16 -1 19 -3 4 -6 -2 -5 -13z"/>
<path d="M14861 8454 c0 -11 3 -14 6 -6 3 7 2 16 -1 19 -3 4 -6 -2 -5 -13z"/>
<path d="M14852 8400 c0 -14 2 -19 5 -12 2 6 2 18 0 25 -3 6 -5 1 -5 -13z"/>
<path d="M14010 7336 c0 -10 -13 -16 -37 -19 l-38 -4 43 -1 c36 -2 42 1 42 18
0 11 -2 20 -5 20 -3 0 -5 -6 -5 -14z"/>
<path d="M12923 7313 c15 -2 37 -2 50 0 12 2 0 4 -28 4 -27 0 -38 -2 -22 -4z"/>
<path d="M19005 6599 c-266 -41 -464 -203 -531 -434 -25 -87 -23 -250 5 -336
37 -117 122 -230 228 -306 231 -165 574 -158 802 15 224 170 288 473 158 742
-45 93 -159 204 -257 252 -128 62 -277 87 -405 67z m215 -254 c149 -52 237
-194 228 -369 -9 -181 -118 -301 -297 -329 -178 -27 -348 80 -397 251 -22 75
-15 200 15 267 72 162 273 242 451 180z"/>
<path d="M5860 6468 c-105 -245 -403 -914 -431 -970 -16 -32 -29 -62 -29 -68
0 -7 47 -10 141 -8 l141 3 52 120 52 120 255 3 c193 2 259 -1 272 -10 9 -7 38
-62 65 -123 l48 -110 148 -3 c117 -2 147 0 143 10 -2 7 -121 271 -263 586
l-258 572 -141 0 -142 0 -53 -122z m286 -380 c46 -112 84 -204 84 -205 0 -2
-79 -3 -176 -3 -137 0 -175 3 -171 13 3 6 37 90 77 186 39 96 76 185 81 199 5
14 12 22 16 19 3 -4 44 -98 89 -209z"/>
<path d="M6835 6581 c-3 -2 -5 -265 -5 -583 l0 -578 435 0 435 0 0 115 0 115
-292 2 -293 3 -2 400 c-1 220 -2 429 -3 465 l0 65 -135 1 c-75 0 -138 -2 -140
-5z"/>
<path d="M7850 6005 l0 -585 455 0 456 0 -3 113 -3 112 -317 3 -318 2 0 125 0
125 268 2 267 3 3 107 3 108 -268 2 -268 3 -3 117 -3 118 308 2 308 3 0 110 0
110 -442 3 -443 2 0 -585z"/>
<path d="M8850 6582 c0 -4 8 -19 17 -32 27 -41 335 -472 360 -506 l23 -31
-211 -294 -211 -294 148 -3 c82 -1 153 -1 159 1 5 3 70 91 144 196 74 105 137
191 140 190 6 0 64 -82 205 -286 l70 -103 276 0 275 0 52 123 51 122 264 3
c205 2 267 -1 275 -10 5 -7 31 -64 58 -125 l49 -113 148 0 c81 0 148 1 148 3
0 2 -14 32 -31 67 -16 34 -76 162 -131 284 -285 627 -361 792 -371 804 -7 9
-45 12 -145 10 l-136 -3 -243 -545 c-133 -300 -244 -549 -246 -554 -3 -9 -327
429 -378 510 l-19 31 195 273 c107 150 198 276 201 281 3 5 -61 9 -145 9
l-151 0 -68 -92 c-37 -51 -97 -135 -132 -185 -44 -65 -67 -90 -75 -83 -5 6
-64 88 -131 183 l-120 172 -157 3 c-86 1 -157 -1 -157 -6z m1858 -494 c45
-109 82 -200 82 -203 0 -3 -79 -5 -176 -5 -137 0 -175 3 -171 13 3 6 37 91 77
187 40 96 76 186 81 199 6 14 13 20 18 15 4 -5 44 -98 89 -206z"/>
<path d="M11407 6583 c-4 -3 -7 -267 -7 -585 l0 -578 135 0 135 0 0 345 c0
190 3 345 8 345 4 -1 81 -91 172 -202 91 -110 220 -265 288 -344 l122 -144
115 0 115 0 -2 583 -3 582 -132 2 -133 2 0 -345 c0 -189 -4 -344 -8 -344 -4 0
-137 155 -296 345 l-289 345 -107 0 c-58 0 -110 -3 -113 -7z"/>
<path d="M12750 6004 l0 -586 338 4 c306 4 344 7 415 26 211 58 362 206 414
405 23 90 14 259 -19 348 -55 150 -137 243 -270 308 -136 67 -179 73 -550 77
l-328 4 0 -586z m685 326 c76 -30 155 -103 186 -173 30 -69 37 -193 16 -268
-20 -66 -65 -130 -121 -168 -70 -49 -134 -62 -318 -68 l-168 -6 0 358 0 357
173 -4 c149 -4 180 -8 232 -28z"/>
<path d="M14125 6577 c-3 -7 -4 -269 -3 -582 l3 -570 460 0 460 0 3 90 c2 50
0 100 -3 113 l-5 22 -320 0 -320 0 0 125 0 125 273 2 272 3 3 107 3 108 -273
2 -273 3 -3 118 -3 117 311 0 310 0 0 115 0 115 -445 0 c-350 0 -447 -3 -450
-13z"/>
<path d="M15240 6006 l0 -586 135 0 135 0 0 165 0 165 123 0 c114 -1 123 -2
138 -23 9 -12 60 -86 113 -164 l97 -143 150 0 c82 0 149 2 149 5 0 3 -54 85
-121 182 -66 97 -123 182 -126 189 -2 7 5 15 17 19 39 12 138 115 164 169 96
203 18 447 -175 543 -101 50 -144 56 -481 60 l-318 5 0 -586z m637 326 c76
-40 115 -129 93 -213 -17 -62 -43 -94 -97 -120 -41 -20 -67 -23 -205 -27
l-158 -5 0 198 0 197 163 -4 c143 -3 167 -6 204 -26z"/>
<path d="M16927 6583 c-4 -3 -7 -267 -7 -585 l0 -579 133 3 132 3 5 327 5 327
59 -97 c33 -53 107 -175 165 -269 l106 -173 66 0 67 0 163 275 c90 151 167
275 170 275 4 0 6 -150 5 -332 l-1 -333 133 -3 132 -3 0 580 c0 319 -3 581 -7
583 -5 2 -58 2 -120 0 l-112 -3 -64 -102 c-35 -56 -128 -213 -208 -349 -79
-136 -148 -246 -154 -244 -5 1 -99 148 -207 326 -108 178 -207 337 -218 352
-20 28 -22 28 -129 28 -59 0 -111 -3 -114 -7z"/>
<path d="M19735 6573 c8 -22 112 -193 299 -493 l141 -225 5 -215 5 -215 138
-3 137 -3 0 205 0 205 95 155 c214 351 355 587 355 596 0 6 -55 10 -135 10
l-134 0 -53 -91 c-100 -171 -244 -403 -254 -406 -5 -1 -73 105 -152 236 -79
131 -149 244 -155 250 -7 7 -62 11 -155 11 -133 0 -144 -1 -137 -17z"/>
<path d="M21056 6016 c-141 -317 -256 -580 -256 -586 0 -7 45 -10 136 -8 109
2 139 6 145 18 5 8 31 63 59 123 l49 107 264 0 265 0 54 -122 54 -123 148 -3
c117 -2 147 0 143 10 -5 12 -332 730 -472 1038 l-52 115 -140 3 -140 3 -257
-575z m429 212 c16 -40 52 -129 82 -197 29 -69 53 -131 53 -138 0 -10 -37 -13
-170 -13 -114 0 -170 4 -170 11 0 17 163 409 170 409 4 0 20 -33 35 -72z"/>
<path d="M16947 4982 c-37 -37 -64 -71 -61 -75 4 -4 21 -7 37 -7 21 0 52 17
104 58 134 103 127 92 53 92 l-66 0 -67 -68z"/>
<path d="M17525 4848 c-83 -11 -193 -67 -243 -124 -160 -181 -120 -472 81
-592 80 -48 154 -65 259 -59 156 8 277 88 341 225 27 59 31 77 32 157 0 107
-18 168 -73 240 -88 116 -237 174 -397 153z m195 -119 c57 -24 122 -90 145
-146 44 -105 25 -236 -45 -316 -114 -129 -320 -138 -442 -20 -57 55 -82 122
-82 218 0 89 20 142 78 203 82 88 225 113 346 61z"/>
<path d="M10900 4800 l0 -50 130 0 130 0 0 -335 0 -335 50 0 50 0 0 335 0 335
136 0 135 0 -3 48 -3 47 -312 3 -313 3 0 -51z"/>
<path d="M12529 4837 c-64 -24 -103 -52 -133 -95 -25 -36 -30 -51 -30 -106 0
-115 47 -158 237 -211 198 -57 227 -76 227 -151 0 -121 -223 -152 -396 -54
l-52 29 -17 -39 c-22 -49 -16 -58 64 -94 212 -95 460 -38 501 116 35 128 -41
222 -215 264 -145 35 -193 53 -219 85 -49 58 -22 134 58 164 65 25 181 17 259
-18 l58 -26 15 35 c8 20 13 42 10 49 -2 7 -31 23 -63 36 -72 28 -247 37 -304
16z"/>
<path d="M18282 4831 c-96 -33 -152 -106 -152 -198 0 -101 66 -164 212 -202
176 -47 193 -54 225 -86 45 -45 45 -85 0 -130 -19 -19 -52 -38 -78 -45 -82
-23 -216 3 -302 57 -21 13 -40 23 -41 21 -17 -30 -35 -82 -30 -89 10 -16 101
-59 161 -74 72 -19 196 -19 257 -1 124 37 190 135 165 245 -21 93 -76 132
-250 176 -177 45 -214 68 -214 136 0 109 185 156 339 86 32 -15 60 -27 61 -27
2 0 10 19 19 41 16 39 16 42 -1 55 -67 52 -268 70 -371 35z"/>
<path d="M8870 4460 l0 -380 55 0 55 0 0 155 0 155 195 0 195 0 0 50 0 50
-195 0 -195 0 0 130 0 130 220 0 220 0 0 45 0 45 -275 0 -275 0 0 -380z"/>
<path d="M9581 4460 l0 -380 265 0 264 0 0 45 0 45 -210 0 -210 0 0 335 0 335
-55 0 -55 0 1 -380z"/>
<path d="M10250 4460 l0 -380 280 0 280 0 0 45 0 45 -227 2 -227 3 -1 122 0
123 195 2 195 3 3 48 3 47 -194 0 -195 0 -7 104 c-4 58 -4 110 0 115 4 7 81
11 221 11 l214 0 0 45 0 45 -270 0 -270 0 0 -380z"/>
<path d="M11670 4460 l0 -380 280 0 280 0 0 45 0 45 -227 2 -228 3 -3 123 -3
122 196 0 195 0 0 50 0 50 -195 0 -195 0 0 115 0 115 220 0 220 0 0 45 0 45
-270 0 -270 0 0 -380z"/>
<path d="M13412 4678 c56 -90 125 -202 155 -249 l53 -86 0 -131 0 -132 50 0
50 0 0 133 c0 123 2 135 24 167 13 19 60 95 105 168 45 74 104 169 132 213
l49 79 -54 0 -54 0 -122 -195 c-67 -107 -126 -193 -130 -190 -4 2 -61 90 -126
195 l-119 190 -57 0 -57 0 101 -162z"/>
<path d="M14460 4460 l0 -380 285 0 285 0 0 45 0 45 -230 0 -230 0 0 125 0
125 195 0 195 0 0 50 0 50 -195 0 -195 0 0 115 0 115 213 0 c118 0 216 2 218
4 3 3 3 23 1 45 l-4 41 -269 0 -269 0 0 -380z"/>
<path d="M15210 4460 l0 -380 55 0 56 0 -3 285 c-3 265 -2 283 14 267 9 -9
114 -136 233 -282 l217 -265 44 0 c24 0 44 3 44 8 0 4 0 174 0 377 l0 370 -50
0 -50 0 0 -280 c0 -154 -3 -280 -7 -280 -5 0 -109 126 -233 280 l-225 279 -47
0 -48 1 0 -380z"/>
<path d="M16000 4836 c0 -3 74 -173 164 -378 l165 -373 56 0 56 0 169 378 168
377 -54 0 -55 0 -25 -57 c-102 -231 -247 -549 -252 -555 -6 -6 -164 340 -249
544 l-28 68 -57 0 c-32 0 -58 -2 -58 -4z"/>
<path d="M16890 4460 l0 -380 55 0 55 0 0 380 0 380 -55 0 -55 0 0 -380z"/>
<path d="M16245 3760 c-38 -38 -67 -72 -64 -74 3 -3 27 -2 55 2 40 7 66 21
129 71 44 35 82 65 84 67 2 2 -27 4 -65 4 l-70 0 -69 -70z"/>
<path d="M11029 3607 c-131 -45 -213 -128 -250 -249 -46 -149 -7 -290 107
-397 89 -83 148 -105 284 -105 130 0 194 22 273 94 172 157 174 419 6 574 -77
71 -145 98 -264 103 -75 3 -101 0 -156 -20z m277 -102 c103 -50 158 -143 158
-265 1 -62 -4 -85 -27 -132 -52 -106 -150 -163 -277 -162 -107 1 -201 56 -257
152 -36 60 -44 175 -18 253 53 157 259 233 421 154z"/>
<path d="M13089 3611 c-140 -45 -232 -153 -260 -305 -32 -172 57 -342 219
-419 63 -30 74 -32 177 -32 98 0 116 3 165 26 30 15 71 40 90 57 l35 30 -29
31 c-35 36 -47 38 -70 12 -10 -11 -41 -29 -69 -41 -152 -66 -350 17 -401 167
-44 129 3 284 105 349 113 71 262 66 364 -12 l36 -27 29 28 c17 16 30 34 30
41 0 21 -88 75 -152 96 -77 23 -194 23 -269 -1z"/>
<path d="M16137 3620 c-145 -37 -260 -161 -288 -314 -52 -284 225 -520 519
-442 117 32 206 107 259 222 24 51 28 71 28 155 0 90 -2 99 -38 171 -45 92
-112 157 -195 189 -64 25 -219 35 -285 19z m237 -104 c59 -25 133 -101 156
-162 75 -201 -61 -406 -270 -408 -124 -1 -218 52 -275 155 -27 48 -30 63 -30
139 0 70 4 93 24 130 44 84 110 137 198 160 49 12 152 5 197 -14z"/>
<path d="M10020 3240 l0 -380 50 0 49 0 3 118 3 117 160 5 c134 5 167 9 205
26 163 76 199 290 70 416 -72 69 -112 78 -347 78 l-193 0 0 -380z m430 265
c42 -24 80 -94 80 -145 0 -55 -38 -120 -85 -144 -35 -18 -58 -21 -180 -21
l-140 0 -3 155 c-1 85 0 160 3 168 4 11 33 13 148 10 120 -2 147 -6 177 -23z"/>
<path d="M11750 3240 l0 -380 55 0 55 0 0 120 0 120 123 0 123 0 84 -120 84
-120 58 0 59 0 -57 83 c-32 45 -70 98 -84 117 -44 57 -44 58 -2 79 149 76 173
298 45 411 -70 61 -113 70 -345 70 l-198 0 0 -380z m436 263 c109 -58 109
-222 1 -284 -38 -22 -55 -24 -184 -27 l-143 -4 0 172 0 172 143 -4 c123 -3
148 -6 183 -25z"/>
<path d="M13865 3532 c-21 -48 -99 -217 -172 -376 -73 -158 -133 -290 -133
-293 0 -2 26 -3 57 -1 l57 3 36 83 c21 46 42 88 47 93 6 6 92 8 213 7 l203 -3
41 -92 41 -93 57 0 57 0 -33 73 c-18 39 -97 210 -176 380 l-143 307 -56 0 -56
0 -40 -88z m183 -209 l80 -178 -160 -3 c-89 -1 -163 -1 -165 1 -5 6 149 357
158 357 4 0 43 -80 87 -177z"/>
<path d="M14490 3240 l0 -380 55 0 55 0 0 277 0 277 141 -232 c128 -211 143
-232 168 -232 25 0 38 19 161 230 74 126 137 230 140 230 3 0 4 -124 2 -275
l-3 -275 56 0 55 0 0 380 0 380 -47 0 -48 -1 -154 -259 c-84 -143 -156 -262
-160 -264 -4 -3 -78 114 -165 260 l-158 264 -49 0 -49 0 0 -380z"/>
<path d="M15560 3240 l0 -380 50 0 50 0 0 380 0 380 -50 0 -50 0 0 -380z"/>
<path d="M16840 3240 l0 -380 50 0 50 0 2 282 3 282 235 -282 235 -282 42 0
43 0 0 380 0 380 -55 0 -55 0 -2 -281 -3 -280 -230 280 -230 280 -42 0 -43 1
0 -380z"/>
</g>
</svg>
