<?xml version="1.0" standalone="no"?>
<!DOCTYPE svg PUBLIC "-//W3C//DTD SVG 20010904//EN"
 "http://www.w3.org/TR/2001/REC-SVG-20010904/DTD/svg10.dtd">
<svg version="1.0" xmlns="http://www.w3.org/2000/svg"
 width="669.000000pt" height="373.000000pt" viewBox="0 0 669.000000 373.000000"
 preserveAspectRatio="xMidYMid meet">

<g transform="translate(0.000000,373.000000) scale(0.100000,-0.100000)"
fill="#000000" stroke="none">
<path d="M3340 2605 c-14 -36 -13 -41 10 -56 19 -14 20 -28 22 -421 l3 -407
-27 -5 c-35 -7 -68 -58 -68 -105 0 -43 44 -124 85 -156 38 -28 45 -24 45 22
l0 33 114 0 113 0 17 -43 c9 -23 16 -46 16 -50 0 -4 -48 -7 -106 -7 -104 0
-105 0 -102 -22 l3 -23 571 -3 c492 -2 573 0 584 12 19 24 2 36 -51 36 -54 0
-58 7 -30 55 12 21 27 31 47 33 16 2 35 11 42 20 14 19 16 128 2 137 -5 3 -10
28 -10 54 0 68 -15 102 -55 129 -34 21 -35 25 -35 82 0 71 -4 75 -131 121 -46
17 -89 36 -96 42 -19 20 -55 150 -43 157 7 5 2 18 -14 37 -24 29 -46 37 -126
49 -51 8 -408 17 -424 11 -14 -5 -13 -9 7 -29 13 -14 30 -52 40 -93 41 -161
40 -160 118 -168 52 -6 108 -20 195 -48 l61 -20 7 -67 c3 -37 6 -84 6 -105 l0
-38 -32 24 c-71 53 -119 70 -209 75 -55 3 -101 0 -125 -9 l-39 -12 53 -12 c63
-15 92 -39 123 -106 l24 -49 129 0 129 0 -7 93 c-4 50 -10 110 -13 133 -4 31
-1 45 13 58 16 17 33 18 155 14 99 -3 142 -8 155 -19 15 -12 16 -29 10 -153
-3 -76 -9 -142 -12 -147 -3 -5 -142 -9 -310 -9 l-305 0 -8 23 c-5 12 -7 25 -5
28 2 4 -5 14 -15 23 -22 20 -80 31 -115 22 -37 -9 -77 -75 -85 -138 -4 -38
-10 -53 -21 -53 -12 0 -15 14 -13 72 2 39 7 82 12 95 l9 23 -87 -6 c-47 -3
-89 -4 -93 -2 -5 2 -8 182 -8 400 0 434 -1 442 -60 477 -30 17 -30 17 -40 -9z
m790 -364 l75 -6 22 -60 c35 -96 40 -92 -89 -82 -62 4 -157 6 -211 4 -64 -3
-100 0 -105 7 -6 11 -40 132 -41 150 -1 8 176 2 349 -13z m-81 -475 c13 -6 31
-21 39 -33 l14 -23 -71 0 c-68 0 -71 1 -86 30 -8 16 -15 34 -15 39 0 13 84 4
119 -13z m542 -19 c8 -32 4 -37 -33 -37 -23 0 -28 4 -28 25 0 23 25 47 44 42
6 -2 13 -15 17 -30z m-1036 -84 c-4 -10 -10 -37 -12 -60 l-6 -43 -88 0 c-96 0
-109 8 -109 64 0 42 33 56 133 56 81 0 88 -2 82 -17z m240 -33 c32 -61 3 -170
-45 -170 -29 0 -55 47 -55 100 0 89 66 136 100 70z m490 -180 c8 -16 15 -31
15 -35 0 -3 -85 -5 -190 -5 -203 0 -207 1 -174 48 15 21 21 22 174 22 l159 0
16 -30z"/>
<path d="M3950 2589 c0 -18 7 -37 16 -44 11 -7 17 -28 18 -58 1 -50 15 -64 47
-47 35 19 17 124 -28 160 -37 29 -53 26 -53 -11z"/>
<path d="M3716 2492 c-3 -5 1 -9 9 -9 8 0 15 4 15 9 0 4 -4 8 -9 8 -6 0 -12
-4 -15 -8z"/>
<path d="M2394 2425 c-3 -8 -19 -54 -34 -101 -15 -48 -34 -90 -41 -94 -8 -5
-65 -14 -128 -21 -143 -17 -116 -25 112 -35 155 -6 169 -10 149 -40 -4 -6
-115 -23 -247 -39 -132 -15 -241 -29 -243 -30 -5 -5 133 -14 296 -21 160 -7
174 -10 154 -40 -4 -7 -98 -21 -227 -34 -300 -30 -318 -35 -165 -43 380 -21
351 -18 348 -41 -3 -24 -22 -28 -193 -46 -192 -21 -205 -26 -87 -35 76 -6 102
-11 102 -21 0 -8 -27 -96 -59 -197 -33 -100 -62 -192 -66 -204 l-6 -23 134 0
134 0 46 143 c25 78 72 226 104 329 32 103 60 188 63 188 3 0 43 -97 89 -215
46 -118 90 -227 97 -241 8 -15 14 -33 14 -40 0 -31 22 -9 104 104 47 64 105
144 129 177 24 33 65 92 92 130 60 87 54 82 65 65 8 -13 13 -13 37 3 25 16 79
42 141 67 21 9 22 15 22 110 0 119 7 117 -127 38 -54 -32 -116 -81 -174 -138
-49 -49 -89 -91 -89 -95 0 -6 -38 -62 -56 -81 -26 -29 -96 -187 -118 -269 -17
-63 -26 -85 -31 -72 -17 42 20 237 61 321 30 61 38 24 -66 311 -34 94 -66 187
-72 208 l-10 37 -125 0 c-100 0 -125 -3 -129 -15z"/>
<path d="M4200 1915 c0 -13 22 -15 135 -15 113 0 135 2 135 15 0 13 -22 15
-135 15 -113 0 -135 -2 -135 -15z"/>
<path d="M3142 1890 c0 -19 2 -27 5 -17 2 9 2 25 0 35 -3 9 -5 1 -5 -18z"/>
<path d="M4210 1845 c0 -13 21 -15 130 -15 109 0 130 2 130 15 0 13 -21 15
-130 15 -109 0 -130 -2 -130 -15z"/>
<path d="M4215 1790 c-15 -24 12 -30 126 -30 112 0 119 1 119 20 0 19 -7 20
-119 20 -69 0 -122 -4 -126 -10z"/>
<path d="M3142 1755 c0 -16 2 -22 5 -12 2 9 2 23 0 30 -3 6 -5 -1 -5 -18z"/>
<path d="M4222 1713 c3 -16 17 -18 118 -18 101 0 115 2 118 18 3 15 -8 17
-118 17 -110 0 -121 -2 -118 -17z"/>
<path d="M3144 1545 c0 -77 2 -107 3 -67 2 40 2 103 0 140 -2 37 -3 4 -3 -73z"/>
</g>
</svg>
